<svg xmlns="http://www.w3.org/2000/svg" xmlns:xlink="http://www.w3.org/1999/xlink" width="332.134" height="444.333" viewBox="0 0 332.134 444.333">
  <defs>
    <linearGradient id="linear-gradient" x1="1.253" y1="-0.282" x2="0.476" y2="1.125" gradientUnits="objectBoundingBox">
      <stop offset="0" stop-color="#ebb5d0"/>
      <stop offset="1" stop-color="#7947b5"/>
    </linearGradient>
    <linearGradient id="linear-gradient-2" x1="0.495" y1="0.947" x2="0.506" y2="-0.034" gradientUnits="objectBoundingBox">
      <stop offset="0" stop-color="#191e66"/>
      <stop offset="1" stop-color="#2d32bb"/>
    </linearGradient>
    <linearGradient id="linear-gradient-3" x1="0.495" y1="0.947" x2="0.506" y2="-0.034" gradientUnits="objectBoundingBox">
      <stop offset="0" stop-color="#dc5a4a"/>
      <stop offset="1" stop-color="#f0895e"/>
    </linearGradient>
    <linearGradient id="linear-gradient-4" x1="0.482" y1="0.944" x2="0.521" y2="-0.019" gradientUnits="objectBoundingBox">
      <stop offset="0" stop-color="#ffaa8d"/>
      <stop offset="1" stop-color="#ffffd9"/>
    </linearGradient>
  </defs>
  <g id="Group_105" data-name="Group 105" transform="translate(2352.411 699.191)">
    <g id="Group_90" data-name="Group 90" transform="translate(-2352.411 -592.933)">
      <path id="Path_197" data-name="Path 197" d="M-2318.026-420.487c3.78,1.431,12.583,5.209,20.12,8.487-2.768.284-9.425,1.875-11.541-.046,0,0-4.561,9.726-2.714,13.918s22.318,6.009,18.316,6.987-19.7-2.041-19.7-2.041-1.385,10.006,2.925,11.963,26.936-.978,24.781.978-22.857,3.983-25.243,1.817c0,0-.462,12.018,7.08,13.276s28.184-8.944,26.406-6.148-20.864,10.9-26.713,7.825c0,0,5.233,11.459,10.005,11.459s16.54-14.745,18.927-12.577-10.308,12.717-17.388,13.974c0,0,2.771,6.568,11.852,4.612s7.542-14.814,10.312-13.7.154,15.232-9.081,15.232c0,0,15.084,3.214,18.624-4.192a17.973,17.973,0,0,0,1.681-5.183,118.917,118.917,0,0,1,2.553,19.983h1.688c-.56-8.639-1.777-17.408-4.068-24.411a15.811,15.811,0,0,0,5.531,1.487c.1,8.326.208,16.156.3,22.924h1.817c-.143-6-.32-13.492-.524-22.881a14.093,14.093,0,0,0,1.465-.139c.547,8.043.9,15.819,1.134,23.02H-2247c-.36-7.439-.844-15.413-1.481-23.5a14.209,14.209,0,0,0,1.428-.526,8.458,8.458,0,0,0,2.941-2.2c-.068,9.341-.067,18.312-.033,26.227h2.733c-.064-9.259-.094-19.957-.024-30.981a26.182,26.182,0,0,0,1.32-10.569c4.245-1.032,9.49-3.83,11.513-4.966a316.923,316.923,0,0,0-10,46.516h1.861a316.1,316.1,0,0,1,9.635-45.111,10.857,10.857,0,0,0,2.531,3.958c2.264,2.056,6.618-4.951,6.618-8.444s-4.685-.14-4.685-2.1.683-.979,6.687-.979,8.158-11.179,8.158-11.179-9.082.978-9.082-.559,7.234-.7,11.852-1.817,7.235-10.2,7.235-10.2-13.237,3.494-13.237,1.957,10.236-3,12.16-4.752,2.616-9.643,2.616-9.643-8.773,7.407-10.158,7.407,9.312-8.175,8.311-9.083-1.385-4.77-1.385-4.77c-1.915,1.739-5.08-.541-7.081,1.276s-5.618,15.721-7.081,17.049,4.079-11.11,1.54-13.416-9.419,3.538-10.774,4.768,3.232,14.727,1.385,16.4-1.469-11.872-2.939-13.206-5.372,2.1-6.526,6.079,8.889,10.795,6,13.415-5.542-7.336-8.081-9.642c-1.877-1.705-5.767,1.63-7.672,4.586.446-12.06,1.131-22.8,2.158-30.468,2.056,5.035,12.677,11.067,20.144,4.16a6.36,6.36,0,0,0,6,.848c8.873-2.9,9.69-4.9,7.822-5.7s-19.208-9.653-17.089-10.607,17.67,10.112,20.636,8.777,7.529-6.812,7-7.039-22.06-7.282-19.658-8.362,19.045,9.338,22.179,4.736,3.269-7.387,2.976-8.5-18.918-2.36-18.291-3.576,18.165,1.3,19.525-1.339,1.7-6.448.188-7.091-10.584,1.8-9.9.485,9.575-1.738,9.246-2.991-1.293-8.215-.666-9.432c0,0-6.289-3.788-7.812-5.672s-3.165-1.223-3.688-.209-4.663,16.5-5.121,14.76,4.76-15.531,3.693-15.985-6.577-4.281-8.277-2.037-2.306,22.757-4.237,22.925,2.741-23.808,2.741-23.808-6.467.34-8.785,2.94.119,26.676-1.875,26.547-1.039-25.314-1.039-25.314-8.037,3.381-8.538,6.877,5.073,19.281,3.308,20.075-3.606-15.5-3.606-15.5-7,2.835-7.4,7.61,6.385,10.752,5.6,12.273-6.838-4.9-7.859-8.783-8.705,16.079-2.212,18.841a12.356,12.356,0,0,0,4.552,1.15,25.858,25.858,0,0,0-1.464,5.334c-1.514,8.817-2.433,23.6-2.977,40.125-1.229-1.058-2.064-1.83-2.064-1.83-1.71.6-2.724,2.557-3.2,5.085-.844-.948-1.438-1.522-1.438-1.522s-.688,2.1-1.731,4.938c-.311-2.179-.637-4.313-.977-6.39a15.9,15.9,0,0,0-.058-3.13c-.237-13.084-.49-28.086-.755-45.309a.461.461,0,0,0-.143-.32c.124-3.335,1.339-32.719,5.838-40.624a107.8,107.8,0,0,0,7.85-18.166,67.407,67.407,0,0,1-7.7,9.083c-3.617,3.284-6.772,3.913-6.772,6.847s4.772,12.437,1.693,11.04-2.309-7.127-3.386-7.127-5.541,13.136-5.541,13.835,7.7,6.148,5.7,7.965-5.233-6.987-6.465-5.869-1.539,10.76-1.539,13.276,5.926,1.188,3.232,3.633-3.226,12.193-3.232,16.7c-6.4-13.3-12.15-16.728-21.547-21.759a9.947,9.947,0,0,0,6.809-2.448c4.257-3.865,6.213-18.136-3.6-22.07a6.882,6.882,0,0,0-1.592-6.229c-6.233-7.127-8.427-6.917-8.427-4.716s-1.385,23.373-3.117,21.8,2.424-22.115,0-24.315-9.351-3.878-9.351-3.249,1.963,24.944,0,23.162,1.154-23.058-4.386-23.792-8.2.525-9.12,1.363,5.31,19.457,3.925,19.457-6-18.2-9-18.2-6.7,1.572-6.7,3.354,5.887,9.328,4.387,9.328-5.426-8.385-6.465-7.441-7.157,5.345-8.542,5.345c0,0-1.039,7.966-2.193,10.376s.116,3.668,1.27,3.668,17.259-3.721,15.815-2.41-16.392,3.144-16.392,4.4-1.385,8.49,1.385,9.014,22.165-9.119,23.088-7.337-23.319,9.223-23.319,9.223,2.886,6.079,6.234,7.022,24.861-13.416,25.532-11.424-23.224,13.625-23.224,13.625,6.349,6.079,9.813,4.821,15.988-14.516,17.431-13.206-13.044,11.214-13.044,11.214,5.426,5.345,10.043,3.354,7.5-11.529,9.235-11.529-1.861,9.052-5.08,11.974,18.47.394,18.47-7.257c0-3.237-.6-5.039-1.292-6.051l.131.07c3.356,1.822,7.81,3.911,11.489,7.385,9.361,8.531,15.371,25.36,19.249,44.833-1.338-.836-2.371-.749-2.371.3,0,1.817-4.849,20.752-7.234,18.586s6.772-19.425,3.54-22.359c-1.919-1.742-6.379-4.016-9.887-5.146,0,0,0-.006-.007-.009-1.514-1.375-6.114-2.81-4.7-6.793s-6.032-7.546-6.032-7.546-4.618,6.079-8.774,6.079,5.31-3.982,5.31-6.288-14.315-6.5-14.315-6.5,4.016,7.647,3.993,10.779a54.875,54.875,0,0,0-5.093-2.885c-1.354-3.437-7.544-11.221-9.946-11.221-2.549,0,5.391,9.241,3.835,10.7-1.9-1.006-11.947-11.982-12.645-11.982-1.386,0-4.849,2.725-11.544,1.677s-5.941-.155-11.422,4.821a66.411,66.411,0,0,0-8.9,9.852s1.055-.48,2.823-1.1C-2341.495-423.574-2324.36-422.884-2318.026-420.487Zm92.971-17.645c.7-.316,1.876,4.434,4.5,7.849a5.732,5.732,0,0,0-1.2-.384C-2224.5-431.219-2226.256-437.592-2225.055-438.132Zm-15.815,40.681c2.633,2.719,9.757,6.232,8.053,7.778-1.163,1.057-5-1.569-8.161-4.083Q-2240.926-395.616-2240.87-397.451Zm-4.807,21.305a3.1,3.1,0,0,0,1.316.936,3.943,3.943,0,0,0,.418.079q-.012.8-.024,1.6c-1.786,2.15-3.878,4.622-5.512,4.812q-.143-1.482-.293-2.96C-2248.708-372.857-2247.124-374.347-2245.677-376.146Zm-43.474-92.448c-.574-.521,3.4-4.023,5.54-8.266a6.532,6.532,0,0,0,.116,1.349C-2282.917-472.576-2288.169-467.7-2289.151-468.594Zm32.709,55.876c-1-4.095-3.587-11.186-4.064-12.545-.6-1.525-1.181-2.945-1.758-4.292,1.281.718,3.022.43,4.59-.994,2.708-2.459,1.594-11.378,3.371-13.127-.177,3.69-.089,20.369.106,40.736C-2254.893-406.454-2255.638-409.746-2256.442-412.718Zm2.1,21.085q.14.9.277,1.8.032,3.044.067,6.125c-2.134,5.128-4.675,10.108-6.294,9.478C-2262.5-375.091-2257.155-384.51-2254.34-391.633Zm-25.389-16.129c.914-.238,1.854-.5,2.752-.76.429,5.513,2.528,17.242-1.476,17.242C-2282.075-391.28-2279.708-401.832-2279.729-407.762Zm-13.346-2.129c1.658,3.277,4.751,9.917,2.308,9.389-2.72-.588-3.916-8.34-5.51-10.787C-2295.16-410.8-2294.089-410.336-2293.075-409.891Z" transform="translate(2352.411 503.075)" fill="url(#linear-gradient)"/>
    </g>
    <g id="Group_102" data-name="Group 102" transform="translate(-2275.001 -680.794)">
      <g id="Group_91" data-name="Group 91" transform="translate(74.979 74.85)">
        <path id="Rectangle_70" data-name="Rectangle 70" d="M13.721,0H148.764a13.72,13.72,0,0,1,13.72,13.72V120.8a13.721,13.721,0,0,1-13.721,13.721H13.721A13.721,13.721,0,0,1,0,120.8V13.721A13.721,13.721,0,0,1,13.721,0Z" fill="url(#linear-gradient-2)"/>
        <rect id="Rectangle_71" data-name="Rectangle 71" width="153.627" height="127.186" rx="12.973" transform="translate(4.429 3.666)" fill="url(#linear-gradient-3)"/>
        <path id="Rectangle_72" data-name="Rectangle 72" d="M11.682,0H126.654a11.682,11.682,0,0,1,11.682,11.682v91.163a11.682,11.682,0,0,1-11.682,11.682H11.681A11.681,11.681,0,0,1,0,102.845V11.682A11.682,11.682,0,0,1,11.682,0Z" transform="translate(12.074 9.996)" fill="url(#linear-gradient-4)"/>
        <rect id="Rectangle_73" data-name="Rectangle 73" width="3.032" height="82.378" transform="translate(27.107 29.598)" fill="#b9bcfc"/>
        <rect id="Rectangle_74" data-name="Rectangle 74" width="6.784" height="64.117" transform="translate(138.889 111.732) rotate(180)" fill="#ac4492"/>
        <rect id="Rectangle_75" data-name="Rectangle 75" width="6.784" height="53.776" transform="translate(127.515 111.732) rotate(180)" fill="#b9bcfc"/>
        <rect id="Rectangle_76" data-name="Rectangle 76" width="6.784" height="42.602" transform="translate(116.839 111.732) rotate(180)" fill="#b9bcfc"/>
        <rect id="Rectangle_77" data-name="Rectangle 77" width="6.785" height="42.602" transform="translate(106.164 111.732) rotate(180)" fill="#b9bcfc"/>
        <rect id="Rectangle_78" data-name="Rectangle 78" width="6.785" height="40.12" transform="translate(95.489 111.732) rotate(180)" fill="#b9bcfc"/>
        <rect id="Rectangle_79" data-name="Rectangle 79" width="6.785" height="29.232" transform="translate(84.813 111.732) rotate(180)" fill="#b9bcfc"/>
        <rect id="Rectangle_80" data-name="Rectangle 80" width="6.784" height="20.06" transform="translate(74.137 111.732) rotate(180)" fill="#b9bcfc"/>
        <rect id="Rectangle_81" data-name="Rectangle 81" width="6.784" height="16.861" transform="translate(63.462 111.732) rotate(180)" fill="#b9bcfc"/>
        <rect id="Rectangle_82" data-name="Rectangle 82" width="6.784" height="16.861" transform="translate(52.787 111.732) rotate(180)" fill="#b9bcfc"/>
        <rect id="Rectangle_83" data-name="Rectangle 83" width="6.784" height="7.803" transform="translate(42.111 111.732) rotate(180)" fill="#b9bcfc"/>
        <path id="Path_198" data-name="Path 198" d="M-1903.233-458.057l-1.667-6.539-8.311,14.007-21.674,1.269-26.788,24.137h-19.08l-29.343,30.162-2.861-2.783,30.519-31.37h19.232l26.689-24.049,20.955-1.227,7.23-12.183-6.539,1.67,2.932-4.94,9.271-2.366L-1900.3-463Z" transform="translate(2044.488 501.971)" fill="#bf2604"/>
        <rect id="Rectangle_84" data-name="Rectangle 84" width="101.567" height="4.521" transform="translate(32.679 15.471)" fill="#b9bcfc"/>
        <rect id="Rectangle_85" data-name="Rectangle 85" width="116.185" height="2.323" transform="translate(28.623 109.652)" fill="#b9bcfc"/>
      </g>
      <g id="Group_95" data-name="Group 95" transform="translate(0 0)">
        <path id="Rectangle_86" data-name="Rectangle 86" d="M13.721,0H148.764a13.72,13.72,0,0,1,13.72,13.72V120.8a13.72,13.72,0,0,1-13.72,13.72H13.721A13.721,13.721,0,0,1,0,120.8V13.721A13.721,13.721,0,0,1,13.721,0Z" fill="url(#linear-gradient-2)"/>
        <rect id="Rectangle_87" data-name="Rectangle 87" width="153.627" height="127.186" rx="12.973" transform="translate(4.429 3.667)" fill="url(#linear-gradient-3)"/>
        <path id="Rectangle_88" data-name="Rectangle 88" d="M11.682,0H126.655a11.681,11.681,0,0,1,11.681,11.681v91.165a11.681,11.681,0,0,1-11.681,11.681H11.683A11.683,11.683,0,0,1,0,102.845V11.682A11.682,11.682,0,0,1,11.682,0Z" transform="translate(12.074 9.996)" fill="url(#linear-gradient-4)"/>
        <rect id="Rectangle_89" data-name="Rectangle 89" width="101.567" height="4.521" transform="translate(32.679 15.472)" fill="#b9bcfc"/>
        <path id="Path_199" data-name="Path 199" d="M-2139.729-476.8a2.586,2.586,0,0,1-2.586,2.586,2.586,2.586,0,0,1-2.586-2.586,2.585,2.585,0,0,1,2.586-2.586A2.585,2.585,0,0,1-2139.729-476.8Z" transform="translate(2179.922 580.081)" fill="#b9bcfc"/>
        <path id="Path_200" data-name="Path 200" d="M-2132.137-535.21a2.586,2.586,0,0,1-2.586,2.586,2.586,2.586,0,0,1-2.586-2.586,2.586,2.586,0,0,1,2.586-2.586A2.586,2.586,0,0,1-2132.137-535.21Z" transform="translate(2176.444 606.845)" fill="#ac4492"/>
        <path id="Path_201" data-name="Path 201" d="M-2100.29-488.137a2.892,2.892,0,0,1-2.892,2.892,2.892,2.892,0,0,1-2.893-2.892,2.893,2.893,0,0,1,2.893-2.893A2.893,2.893,0,0,1-2100.29-488.137Z" transform="translate(2162.133 585.418)" fill="#b9bcfc"/>
        <path id="Path_202" data-name="Path 202" d="M-2078.288-525.086a3.165,3.165,0,0,1-3.164,3.165,3.165,3.165,0,0,1-3.165-3.165,3.165,3.165,0,0,1,3.165-3.165A3.164,3.164,0,0,1-2078.288-525.086Z" transform="translate(2152.301 602.472)" fill="#b9bcfc"/>
        <path id="Path_203" data-name="Path 203" d="M-2038.175-522.419a3.165,3.165,0,0,1-3.165,3.165,3.165,3.165,0,0,1-3.165-3.165,3.165,3.165,0,0,1,3.165-3.165A3.165,3.165,0,0,1-2038.175-522.419Z" transform="translate(2133.922 601.25)" fill="#bf2604"/>
        <path id="Path_204" data-name="Path 204" d="M-2075.671-483.542a3.164,3.164,0,0,1-3.164,3.165,3.165,3.165,0,0,1-3.165-3.165,3.165,3.165,0,0,1,3.165-3.165A3.165,3.165,0,0,1-2075.671-483.542Z" transform="translate(2151.102 583.437)" fill="#bf2604"/>
        <path id="Path_205" data-name="Path 205" d="M-2084.128-566.942a3.165,3.165,0,0,1-3.165,3.165,3.165,3.165,0,0,1-3.165-3.165,3.165,3.165,0,0,1,3.165-3.165A3.165,3.165,0,0,1-2084.128-566.942Z" transform="translate(2154.977 621.65)" fill="#ac4492"/>
        <path id="Path_206" data-name="Path 206" d="M-2033.989-564.346a2.717,2.717,0,0,1-2.718,2.717,2.717,2.717,0,0,1-2.717-2.717,2.717,2.717,0,0,1,2.717-2.718A2.718,2.718,0,0,1-2033.989-564.346Z" transform="translate(2131.594 620.255)" fill="#b9bcfc"/>
        <path id="Path_207" data-name="Path 207" d="M-1999.485-550.372a2.717,2.717,0,0,1-3.579-1.4,2.718,2.718,0,0,1,1.4-3.58,2.717,2.717,0,0,1,3.579,1.4A2.718,2.718,0,0,1-1999.485-550.372Z" transform="translate(2115.04 614.993)" fill="#bf2604"/>
        <path id="Path_208" data-name="Path 208" d="M-1966.394-577.186a2.718,2.718,0,0,1-3.579-1.4,2.717,2.717,0,0,1,1.4-3.579,2.717,2.717,0,0,1,3.579,1.4A2.717,2.717,0,0,1-1966.394-577.186Z" transform="translate(2099.878 627.279)" fill="#bf2604"/>
        <path id="Path_209" data-name="Path 209" d="M-2027.139-601.687a2.717,2.717,0,0,1-2.717,2.717,2.717,2.717,0,0,1-2.718-2.717,2.717,2.717,0,0,1,2.718-2.717A2.717,2.717,0,0,1-2027.139-601.687Z" transform="translate(2128.456 637.364)" fill="#ac4492"/>
        <path id="Path_210" data-name="Path 210" d="M-1978.607-611.6a2.717,2.717,0,0,1-2.717,2.717,2.717,2.717,0,0,1-2.717-2.717,2.717,2.717,0,0,1,2.717-2.717A2.717,2.717,0,0,1-1978.607-611.6Z" transform="translate(2106.219 641.904)" fill="#ac4492"/>
        <circle id="Ellipse_8" data-name="Ellipse 8" cx="3.112" cy="3.112" r="3.112" transform="translate(120.219 38.29)" fill="#b9bcfc"/>
        <g id="Group_92" data-name="Group 92" transform="translate(27.947 27.591)">
          <path id="Path_211" data-name="Path 211" d="M-2091-515.188l-6.761,11.253a5,5,0,0,1,1.794,1.079l6.744-11.276A5.276,5.276,0,0,1-2091-515.188Z" transform="translate(2130.375 568.895)" fill="#b9bcfc"/>
          <path id="Path_212" data-name="Path 212" d="M-2120.292-485.118l-12.243,3.444a4.662,4.662,0,0,1,.57,2.024l12.244-3.444A4.96,4.96,0,0,1-2120.292-485.118Z" transform="translate(2146.31 555.117)" fill="#b9bcfc"/>
          <path id="Path_213" data-name="Path 213" d="M-1975.458-603.576l8.464-9.324-1.557-1.413-8.463,9.323A5.267,5.267,0,0,1-1975.458-603.576Z" transform="translate(2075.052 614.313)" fill="#b9bcfc"/>
          <path id="Path_214" data-name="Path 214" d="M-2152.476-470.68l-5.483,4.595,1.352,1.613,5.483-4.6A4.725,4.725,0,0,1-2152.476-470.68Z" transform="translate(2157.958 548.502)" fill="#b9bcfc"/>
          <path id="Path_215" data-name="Path 215" d="M-2007.855-586.267l-19.7,10.049a4.809,4.809,0,0,1,.958,1.872l19.7-10.049A5.2,5.2,0,0,1-2007.855-586.267Z" transform="translate(2098.21 601.463)" fill="#b9bcfc"/>
          <path id="Path_216" data-name="Path 216" d="M-2056.285-557.714l-16.683,14.905a5.306,5.306,0,0,1,1.4,1.569l16.683-14.905A4.877,4.877,0,0,1-2056.285-557.714Z" transform="translate(2119.017 588.38)" fill="#b9bcfc"/>
        </g>
        <g id="Group_93" data-name="Group 93" transform="translate(28.366 27.287)">
          <path id="Path_217" data-name="Path 217" d="M-2108.723-560.689l-17.813,11.614a4.706,4.706,0,0,1,1.151,1.761l17.813-11.614A5.28,5.28,0,0,1-2108.723-560.689Z" transform="translate(2143.142 590.048)" fill="#ac4492"/>
          <path id="Path_218" data-name="Path 218" d="M-1970.467-611.853c0,.048,0,.1,0,.146l5.737-1.1-.4-2.067-5.737,1.1A4.786,4.786,0,0,1-1970.467-611.853Z" transform="translate(2071.816 614.875)" fill="#ac4492"/>
          <path id="Path_219" data-name="Path 219" d="M-2055.011-596.49l-22.515,13.859a5.289,5.289,0,0,1,1.106,1.79l22.515-13.86A4.824,4.824,0,0,1-2055.011-596.49Z" transform="translate(2120.686 606.451)" fill="#ac4492"/>
          <path id="Path_220" data-name="Path 220" d="M-2001.942-607.4a4.8,4.8,0,0,1-.422-1.972c0-.03,0-.06,0-.089l-17.077,3.487a4.793,4.793,0,0,1,.422,1.972c0,.03,0,.06,0,.089Z" transform="translate(2094.072 612.395)" fill="#ac4492"/>
          <path id="Path_221" data-name="Path 221" d="M-2146.224-525.584l-10.961,34.267,2,.64,10.961-34.265A4.641,4.641,0,0,1-2146.224-525.584Z" transform="translate(2157.185 573.963)" fill="#ac4492"/>
        </g>
        <rect id="Rectangle_90" data-name="Rectangle 90" width="3.032" height="82.378" transform="translate(27.107 29.598)" fill="#4f80ff"/>
        <g id="Group_94" data-name="Group 94" transform="translate(30.11 26.076)">
          <path id="Path_222" data-name="Path 222" d="M-2057.786-514.22l-13.155,13.628a5.3,5.3,0,0,1,1.512,1.459l13.151-13.635A5.315,5.315,0,0,1-2057.786-514.22Z" transform="translate(2115.925 569.967)" fill="#bf2604"/>
          <path id="Path_223" data-name="Path 223" d="M-1965.612-600.4a4.814,4.814,0,0,1,1.586.269l1.937-16.733-2.089-.242-1.937,16.732A4.987,4.987,0,0,1-1965.612-600.4Z" transform="translate(2067.895 617.109)" fill="#bf2604"/>
          <path id="Path_224" data-name="Path 224" d="M-1982.134-573.42l-10.62,8.606a4.817,4.817,0,0,1,1.324,1.635l10.621-8.606A4.816,4.816,0,0,1-1982.134-573.42Z" transform="translate(2080.101 597.091)" fill="#bf2604"/>
          <path id="Path_225" data-name="Path 225" d="M-2117.072-480.393l-36.895,9.4.52,2.038,36.895-9.4A5.225,5.225,0,0,1-2117.072-480.393Z" transform="translate(2153.966 554.468)" fill="#bf2604"/>
          <path id="Path_226" data-name="Path 226" d="M-2018.23-546.839l-14.04,10.715a5.3,5.3,0,0,1,1.278,1.671l14.038-10.714A4.81,4.81,0,0,1-2018.23-546.839Z" transform="translate(2098.207 584.912)" fill="#bf2604"/>
        </g>
        <path id="Path_227" data-name="Path 227" d="M-1962.307-613.854a2.717,2.717,0,0,1-3.579-1.4,2.717,2.717,0,0,1,1.4-3.579,2.717,2.717,0,0,1,3.579,1.4A2.717,2.717,0,0,1-1962.307-613.854Z" transform="translate(2098.005 644.08)" fill="#b9bcfc"/>
        <rect id="Rectangle_91" data-name="Rectangle 91" width="116.185" height="2.323" transform="translate(28.623 109.653)" fill="#4f80ff"/>
        <rect id="Rectangle_92" data-name="Rectangle 92" width="20.16" height="2.795" transform="translate(35.898 26.076)" fill="#ac4492"/>
        <rect id="Rectangle_93" data-name="Rectangle 93" width="20.16" height="2.795" transform="translate(35.898 31.563)" fill="#b9bcfc"/>
        <rect id="Rectangle_94" data-name="Rectangle 94" width="20.16" height="2.795" transform="translate(35.898 36.893)" fill="#bf2604"/>
      </g>
      <g id="Group_101" data-name="Group 101" transform="translate(130.411 0)">
        <g id="Group_97" data-name="Group 97" transform="translate(0 36.862)">
          <path id="Path_228" data-name="Path 228" d="M-1935.334-525.322c-.813-4.133-4.946-21.3-4.946-27.155a41.969,41.969,0,0,1,2.625-15.545c2.019-5.855,0-14.537,0-14.537-.2-.961-2.524-3.684-3.332-2.876s1.211,2.07.808,4.694-1.54,1.943-2.171,1.312-.807-17.464-2.372-17.767-.959,12.417-1.211,14.638-2.231,1.454-3.079,2.3-.4,1.384-1.312,2.292-1.111,2.927-.656,5.855,4.442,7.823,4.442,10.044-3.5,56.98,6.864,58.246c3.192.39,9.9-3.018,14.93-9a29.9,29.9,0,0,0-5.243-11.6C-1931.686-523.016-1934.565-521.409-1935.334-525.322Z" transform="translate(1960.766 597.202)" fill="#e4b69d"/>
          <path id="Path_229" data-name="Path 229" d="M-1903.547-550.442a2.047,2.047,0,0,0-1.146.681c-2.28,2.28-10.942,15.037-15.667,26.452l-11.046,21.273-6.064-30.983-9.3,2.976c-2.479,23.43-2.479,53.43,11.777,48.843s23.432-27.239,23.432-27.239l11.407-36.139S-1900.845-550.448-1903.547-550.442Z" transform="translate(1959.299 575.777)" fill="#131537"/>
          <path id="Path_230" data-name="Path 230" d="M-1948.7-566.665s7.489,7.312,6.052,8.749-7.448-6.331-7.448-6.331,6.67,6.8,5.492,7.975-6.945-4.565-6.945-4.565,6.08,5.229,4.989,5.831-4.989-3.574-4.989-3.574a5.948,5.948,0,0,1-.352-2.5c.207-.941-.132-1.336.038-1.919a5.744,5.744,0,0,1,1.241-1.786C-1950.3-565.115-1950.164-567.208-1948.7-566.665Z" transform="translate(1961.103 583.251)" fill="#efc7b0"/>
          <path id="Path_231" data-name="Path 231" d="M-1882.075-388.819l-14.969,2.2,8.415-38.831,8.135,4.182Z" transform="translate(1935.946 518.507)" fill="#230044"/>
          <path id="Path_232" data-name="Path 232" d="M-1808.539,89.182l-.231,14.344,1.6.046,2.057-16.352Z" transform="translate(1895.5 283.608)" fill="#1d1c22"/>
          <g id="Group_96" data-name="Group 96" transform="translate(3.337 223.165)">
            <path id="Path_233" data-name="Path 233" d="M-1832.158-142.069s1.709,22.431,4.456,29.131-2.163,95.286-4.494,102.432a21.809,21.809,0,0,1-1.942,4.241c-2.545,4.353-3.123,5.241.289,5.252,4.384.015,8.224-.819,9.075-2.615,1.47-3.1,2.769-13.777,5.769-13.767,0,0,2.049-3.98,1.538-6.075-.769-3.154-2.913-1.533-2.9-5.917s14.542-71.019,12.267-80.717-3.886-10.858-3.848-22.395S-1832.158-142.069-1832.158-142.069Z" transform="translate(1904.744 165.559)" fill="#efc7b0"/>
            <path id="Path_234" data-name="Path 234" d="M-1900.011-185.315s-16.36,31.176-15.314,40.41,4.5,16.689,1.535,29.293-26.428,58.312-26.988,66.67c-.236,3.522.838,3.852.838,3.852-.047,6.073-1.941,12.575-3.2,13.83-1.62,1.61-3.445,9.611-4.984,9.606s-14.536,1.385-14.536,1.385c-.336-2.965,3.641-.584,5.97-6.729s3.742-15.37,6.707-27.819,15.122-69.264,15.166-82.339-1.157-13.14.871-21.747,9.619-24.733,9.619-24.733Z" transform="translate(1962.684 185.315)" fill="#efc7b0"/>
            <path id="Path_235" data-name="Path 235" d="M-1892.028-144.9c-1.046-9.234,15.314-40.41,15.314-40.41l-24.32,1.677s-7.591,16.126-9.619,24.733c-1.488,6.315-1.238,8.032-1.017,13.66,4.649,1,11.881,2.46,20.141,3.794C-1891.722-142.583-1891.895-143.729-1892.028-144.9Z" transform="translate(1939.387 185.315)" fill="#e4b69d"/>
            <path id="Path_236" data-name="Path 236" d="M-1808.5-132.5c.038-11.537-20.211-9.571-20.211-9.571s1.091,14.3,2.928,23.478a91.848,91.848,0,0,0,18.67-.688C-1808-122.652-1808.526-125.854-1808.5-132.5Z" transform="translate(1901.301 165.559)" fill="#e4b69d"/>
          </g>
          <path id="Path_237" data-name="Path 237" d="M-1894.992-385s-2.849,43.914-5,54.375-14.459,84.6-14.459,84.6,54.824,4.615,68.053,0c0,0,1.478-95.14-1.637-107.369s-16.733-34.483-16.733-34.483Z" transform="translate(1943.923 501.29)" fill="#0f1d5b"/>
          <path id="Path_238" data-name="Path 238" d="M-1848.583-387.873-1878.8-385s-.116,1.784-.319,4.718c0,0,8.723,9.342,13.278,21.132,4.088,10.579-.163,97.243-1.08,114.94,14.731.49,30.422.383,36.711-1.811,0,0,1.478-95.14-1.637-107.369S-1848.583-387.873-1848.583-387.873Z" transform="translate(1927.734 501.29)" fill="#1a0033" opacity="0.53"/>
          <path id="Path_239" data-name="Path 239" d="M-1845.265-554.838l-16.63-1.205-5.891,11.529,23.663,2.464Z" transform="translate(1922.54 578.343)" fill="#230044"/>
          <path id="Path_240" data-name="Path 240" d="M-1878.232-549.152s7.568-5.784,33.229.009c.7.158,1.348,27.959,1.348,27.959s-11.906,46.607-9.642,58.239c0,0-13.611,11.486-33.915,1.488,0,0,2.638-36.6.792-44.754s-5.531-15.546-.3-24.006A95.92,95.92,0,0,0-1878.232-549.152Z" transform="translate(1932.449 576.363)" fill="#fff7cf"/>
          <path id="Path_241" data-name="Path 241" d="M-1862.869-510.825v53.643c13.38,1.754,21.733-5.3,21.733-5.3-2.264-11.632,9.642-58.239,9.642-58.239s-.649-27.8-1.348-27.959a113.415,113.415,0,0,0-11.465-2.023Z" transform="translate(1920.287 575.894)" fill="#d1ccb2"/>
          <path id="Path_242" data-name="Path 242" d="M-1838.5-553.819l-14.516,41.564v68.988l32.078,1.55-11.183-14.629-2.688-19.447,7.827-46.354-1.347-27.958Z" transform="translate(1915.771 577.324)" fill="#2e005b"/>
          <path id="Path_243" data-name="Path 243" d="M-1875.3-556.043l-11.949,39.67-3.1,69.918h-6.694l7.19-36.942-4.215-41.654,12.025-26.9Z" transform="translate(1935.946 578.343)" fill="#2e005b"/>
          <path id="Path_244" data-name="Path 244" d="M-1838.5-553.819l-14.516,41.564,18.549-24.173,3.091-16.287Z" transform="translate(1915.771 577.324)" fill="#4f3369"/>
          <path id="Path_245" data-name="Path 245" d="M-1867.019-556.043l-11.949,39.67,1.078-28.378,4.981-10.087Z" transform="translate(1927.664 578.343)" fill="#4f3369"/>
          <path id="Path_246" data-name="Path 246" d="M-1805.4-371.2c.417-.417,4.054-5.775,4.831-5s-3.22,5.72-3.22,5.72,4.637-4.693,5.554-3.776-6.2,7.253-6.947,7.253S-1805.4-371.2-1805.4-371.2Z" transform="translate(1894.041 495.975)" fill="#e4b69d"/>
          <path id="Path_247" data-name="Path 247" d="M-1817.73-383.475s-1.961,2.993-.516,4.438.671,2.941,1.651,3.921,5.366,1.136,5.366,1.136a30.15,30.15,0,0,1,2.476-9.082,33.879,33.879,0,0,1,3.5-4.98,59.314,59.314,0,0,0-6.055-3.465C-1814.93-386.8-1817.664-383.593-1817.73-383.475Z" transform="translate(1900.085 502.955)" fill="#efc7b0"/>
          <path id="Path_248" data-name="Path 248" d="M-1808.4-546.971s-2.545,20.227,0,25.8c2.478,5.424,16.959,11.681,19.444,22.668,1.857,8.21-12.12,23.644-20,33.872,1.97,1.971,7.05,7.117,8.991,8.4,8.016-10.2,27.913-35.228,28.417-40.861C-1770.929-504.017-1797.641-547.694-1808.4-546.971Z" transform="translate(1895.851 574.191)" fill="#131537"/>
          <path id="Path_249" data-name="Path 249" d="M-1808.7-546.964c-.383,4.717-.686,9.234-.775,14.045-.08,8.5.431,11.176,2.307,13.308,4.354,5.046,16.005,11.211,17.912,21.115-2.712-9.82-13.981-15.284-18.533-20.587-1.717-1.978-2.052-4.1-2.262-6.776C-1810.514-532.135-1809.661-540.652-1808.7-546.964Z" transform="translate(1896.147 574.183)" fill="#53587d"/>
          <path id="Path_250" data-name="Path 250" d="M-1821.318,70.148c-1.347,8.019-5.851,21.844-8.95,23.14-5.13,1.076-5.158.542-5.127-2.26-2.546,4.352-5.428,6.579-2.017,6.591,4.384.015,11.221.3,12.073-1.492,1.47-3.1,2.307-14.841,5.307-14.83l-.981,14.454,1.592.047s2.426-19.9,1.915-21.888C-1818.205,71.181-1820.474,70.639-1821.318,70.148Z" transform="translate(1909.337 291.43)" fill="#3a3745"/>
          <path id="Path_251" data-name="Path 251" d="M-1961.106,94.409c-3.572,2.21-8,2.258-7.726,4.635,0,0,16.83-.666,18.369-.661s2.877-9.45,4.5-11.061.579,11.077.579,11.077l1.658.005s1.154-13.071,2.709-18.142c1.239-4.039-.5-5.745-1.742-6.77C-1947.844,83.133-1948.386,96.713-1961.106,94.409Z" transform="translate(1968.844 289.898)" fill="#3a3745"/>
          <path id="Path_252" data-name="Path 252" d="M-1845.74-440.94a1.81,1.81,0,0,1-1.811,1.81,1.811,1.811,0,0,1-1.811-1.81,1.811,1.811,0,0,1,1.811-1.811A1.811,1.811,0,0,1-1845.74-440.94Z" transform="translate(1914.098 526.434)" fill="#58337c"/>
          <path id="Path_253" data-name="Path 253" d="M-1845.74-421.358a1.81,1.81,0,0,1-1.811,1.81,1.81,1.81,0,0,1-1.811-1.81,1.811,1.811,0,0,1,1.811-1.811A1.811,1.811,0,0,1-1845.74-421.358Z" transform="translate(1914.098 517.462)" fill="#58337c"/>
          <path id="Path_254" data-name="Path 254" d="M-1845.74-405.644a1.811,1.811,0,0,1-1.811,1.811,1.811,1.811,0,0,1-1.811-1.811,1.811,1.811,0,0,1,1.811-1.811A1.811,1.811,0,0,1-1845.74-405.644Z" transform="translate(1914.098 510.262)" fill="#58337c"/>
        </g>
        <g id="Group_100" data-name="Group 100" transform="translate(51.372)">
          <path id="Path_255" data-name="Path 255" d="M-1849.243-663.248c1.034.956,10.905-.486,19.266,8.51,11.058,11.9,9.751,39.7,9.751,39.7s-11.741,2.675-16.384,2.857-14.079-1.164-19.118-1.907c-5.143-.758-7.918-29.692-4.455-37.357S-1849.243-663.248-1849.243-663.248Z" transform="translate(1868.389 664.326)" fill="#2e162b"/>
          <path id="Path_256" data-name="Path 256" d="M-1854.882-663.26s-11.021-.634-13.751,6.485-1.577,29.88-5.4,32.245c0,0,2.876,1.805,5.307,1.711,0,0,1.6,2.807-2.236,6.952a31.374,31.374,0,0,0,9.59,1.764c.337,0,3.911,1,4.239-2.022.389-3.578-2.47-11.5-2.1-14.965C-1857.662-645.755-1854.882-663.26-1854.882-663.26Z" transform="translate(1874.028 664.338)" fill="#452140"/>
          <path id="Path_257" data-name="Path 257" d="M-1850.222-660.826a10.612,10.612,0,0,0-2.894.335s-9.448,3.957-9.878,10.912.535,9.655-.225,14.156c-1.195,7.074,3.28,20.23,10.983,20.058.179-3.727-2.486-11.253-2.128-14.6C-1853.053-642.238-1850.893-656.5-1850.222-660.826Z" transform="translate(1869.163 663.216)" fill="#341930"/>
          <path id="Path_258" data-name="Path 258" d="M-1853.356-587.269s-1.77,13.423-3.614,16.963-4.783,18.995-2.2,18.995,14.592-12.026,15.366-16.893,4.535-24.965,4.535-24.965Z" transform="translate(1867.686 632.216)" fill="#efc7b0"/>
          <path id="Path_259" data-name="Path 259" d="M-1847.889-588.773c-.1.047-.4,2.828-.411,2.937-.427,2.991-.552,2.806-.424,3.2,1,3.129,5.038,5.09,10.991-.231a29.9,29.9,0,0,0,2.182-2.171c.836-4.528,1.511-8.135,1.511-8.135S-1847.77-588.824-1847.889-588.773Z" transform="translate(1862.456 632.216)" fill="#e4b69d"/>
          <path id="Path_260" data-name="Path 260" d="M-1850.85-660.565s-8.93,3.782-9.333,10.441.51,9.243-.206,13.552,1.137,15.824,7.894,18.733,15.749-8.239,17.324-13.246a40.123,40.123,0,0,0,.414-20C-1836.466-658.915-1845.885-661.941-1850.85-660.565Z" transform="translate(1867.845 663.243)" fill="#efc7b0"/>
          <path id="Path_261" data-name="Path 261" d="M-1839.952-623.251a24.356,24.356,0,0,0,4.986-7.834,40.123,40.123,0,0,0,.415-20c-1.709-7.83-11.128-10.856-16.093-9.48,0,0-8.93,3.782-9.333,10.441-.135,2.231-.122,4-.072,5.538h0l8.408-.286s-.521-7.137,1.151-8.947l.278,8.578,5.761.042s2.107-3.776,1.979-7.047c0,0,.195,4.581-.981,7.063,0,0,4.7-.239,4.791,2.192.078,1.988-.615,14.453-.969,17.752A18.739,18.739,0,0,1-1839.952-623.251Z" transform="translate(1867.639 663.243)" fill="#e4b69d"/>
          <path id="Path_262" data-name="Path 262" d="M-1824.01-651.013c-6.744-13.891-18.972-15.936-25.756-13.148-4.321.224-9.243,2.031-11.41,5.675a12.241,12.241,0,0,0-.668,11.089l8.024-.085s.314-8.233,1.986-10.041l.391,9.949,5.693-.224s1.85-5.047,1.721-8.317c0,0,1.112,5.771-.063,8.253,0,0,4.058.449,4.154,2.881.078,1.988-.615,14.453-.969,17.753a16.963,16.963,0,0,1-4.154,9.684s13.378,2.353,16.139-.634l-1.4,4.173s7.507-.869,9.568-1.946S-1820.128-643.016-1824.01-651.013Z" transform="translate(1868.915 665.237)" fill="#4c2a54"/>
          <path id="Path_263" data-name="Path 263" d="M-1861.176-657.576a12.241,12.241,0,0,0-.668,11.089l8.024-.085s.314-8.233,1.986-10.041l.391,9.949,5.693-.224s1.85-5.047,1.721-8.317c0,0,1.112,5.771-.063,8.253,0,0,4.058.449,4.154,2.881.078,1.988-.615,14.453-.969,17.753q-.058.534-.141,1.04h0c7.488-7.488,6.2-25.437,4.2-31.78s-12.915-6.191-12.915-6.191C-1854.088-663.027-1859.009-661.22-1861.176-657.576Z" transform="translate(1868.915 664.327)" fill="#653870"/>
          <path id="Path_264" data-name="Path 264" d="M-1838.649-662.285c10.116-.546,17.267,1.732,20.831,11.269,3.468,9.165,6.89,23.4,3.679,32.657l-3.307-1.264c3.071-7.381,1.226-19.69-.851-27.458C-1820.89-656.81-1824.25-662.179-1838.649-662.285Z" transform="translate(1857.818 663.919)" fill="#653870"/>
          <g id="Group_98" data-name="Group 98" transform="translate(7.776 2.099)">
            <path id="Path_265" data-name="Path 265" d="M-1850.035-661.243c-3.45,1.031-7.256,2.768-8.793,6.006-1.426,2.99-.764,6.446-.122,9.655l.856-.009C-1859.724-652.368-1860.551-657.691-1850.035-661.243Z" transform="translate(1859.677 661.308)" fill="#363a68"/>
            <path id="Path_266" data-name="Path 266" d="M-1846.392-660.773c-7.125,3.039-6.848,8.551-5.106,15.361l.847-.009C-1852.891-652.106-1853.431-657.533-1846.392-660.773Z" transform="translate(1856.404 661.093)" fill="#363a68"/>
            <path id="Path_267" data-name="Path 267" d="M-1838.821-661.363c2.265,5.491,1.784,9.993.414,15.483l.819-.032C-1836.556-651.409-1836.35-656.079-1838.821-661.363Z" transform="translate(1850.121 661.363)" fill="#363a68"/>
          </g>
          <path id="Path_268" data-name="Path 268" d="M-1848.94-611.3c1.117-1.368,1.365-4.2,1.154-6-.378,1.692-.882,4.734-1.753,5.807l-.183.225a4.039,4.039,0,0,0,2.736,1.207A6.089,6.089,0,0,1-1848.94-611.3Z" transform="translate(1862.891 643.272)" fill="#452140"/>
          <path id="Path_269" data-name="Path 269" d="M-1844.042-586.1h0Z" transform="translate(1860.289 628.979)" fill="#fff"/>
          <g id="Group_99" data-name="Group 99" transform="translate(12.437 34.967)">
            <path id="Path_270" data-name="Path 270" d="M-1842.672-600.7c-3.356,1.608-8.4,1.824-8.4,1.824a8.9,8.9,0,0,0,1.027,1.4,25.854,25.854,0,0,0,6.7-1.435A11.158,11.158,0,0,0-1842.672-600.7Z" transform="translate(1851.074 600.7)" fill="#fff"/>
            <path id="Path_271" data-name="Path 271" d="M-1842.478-597.39a25.848,25.848,0,0,1-6.7,1.435C-1846.664-593.166-1844.132-593.953-1842.478-597.39Z" transform="translate(1850.205 599.183)" fill="#2e162b"/>
          </g>
          <path id="Path_272" data-name="Path 272" d="M-1841.576-628.324a4.565,4.565,0,0,1,2.282-1.154c1.537-.337,4.818,1.444,4.818,1.444a27.957,27.957,0,0,0-4.185-.832,6.652,6.652,0,0,0-2.343.922Z" transform="translate(1859.159 648.872)" fill="#5c2c55"/>
          <path id="Path_273" data-name="Path 273" d="M-1854.575-627.653a4.17,4.17,0,0,0-1.936-1.1c-1.318-.376-4.206.893-4.206.893a24.65,24.65,0,0,1,3.642-.426,6.112,6.112,0,0,1,2,.911Z" transform="translate(1867.929 648.552)" fill="#5c2c55"/>
          <path id="Path_274" data-name="Path 274" d="M-1841.85-620.427a4.21,4.21,0,0,1,3.442-.971c1.443.284,2.257,1.462,3.156,1.642-1.351.332-1.811-1.183-4.922-1.024A5.687,5.687,0,0,0-1841.85-620.427Z" transform="translate(1859.285 645.176)" fill="#2e162b"/>
          <path id="Path_275" data-name="Path 275" d="M-1855.5-619.741a4.213,4.213,0,0,0-3.351-1.249c-1.461.166-2.369,1.274-3.28,1.381,1.32.44,1.9-1.032,4.989-.62A5.635,5.635,0,0,1-1855.5-619.741Z" transform="translate(1868.575 644.971)" fill="#2e162b"/>
          <ellipse id="Ellipse_9" data-name="Ellipse 9" cx="2.651" cy="1.454" rx="2.651" ry="1.454" transform="translate(7.776 27.766)" fill="#ffaf90"/>
          <path id="Path_276" data-name="Path 276" d="M-1830.706-612.323c0,.921-1.778,1.668-3.972,1.668s-3.972-.747-3.972-1.668,1.778-1.668,3.972-1.668S-1830.706-613.244-1830.706-612.323Z" transform="translate(1857.818 641.757)" fill="#ffaf90"/>
        </g>
      </g>
    </g>
    <g id="Group_103" data-name="Group 103" transform="translate(-2051.471 -687.102)">
      <path id="Path_277" data-name="Path 277" d="M-1783.971-658.024a.527.527,0,0,1-.51-.4c-3.369-13.61-12.088-17.407-12.175-17.444a.526.526,0,0,1-.282-.689.527.527,0,0,1,.688-.282c.378.159,9.3,4.043,12.79,18.161a.526.526,0,0,1-.384.637A.509.509,0,0,1-1783.971-658.024Z" transform="translate(1796.979 676.878)" fill="#58307d"/>
    </g>
    <g id="Group_104" data-name="Group 104" transform="translate(-2055.166 -699.191)">
      <path id="Path_278" data-name="Path 278" d="M-1782.221-665.322a.526.526,0,0,1-.526-.526c0-20.018-20.582-32.241-20.789-32.362a.527.527,0,0,1-.19-.72.526.526,0,0,1,.719-.19,53,53,0,0,1,10.646,8.791c4.866,5.21,10.667,13.685,10.667,24.48A.526.526,0,0,1-1782.221-665.322Z" transform="translate(1803.798 699.191)" fill="#58307d"/>
    </g>
  </g>
</svg>
